<svg width="56" height="56" viewBox="0 0 56 56" fill="none" xmlns="http://www.w3.org/2000/svg">
<mask id="mask0_1_57" style="mask-type:luminance" maskUnits="userSpaceOnUse" x="0" y="0" width="56" height="56">
<path d="M8.37383 0H47.6262C52.2318 0 56 3.76822 56 8.37383V47.6262C56 52.2318 52.2318 56 47.6262 56H8.37383C3.76822 56 0 52.2318 0 47.6262V8.37383C0 3.76822 3.76822 0 8.37383 0Z" fill="white"/>
</mask>
<g mask="url(#mask0_1_57)">
<path fill-rule="evenodd" clip-rule="evenodd" d="M22.6616 25.0168C24.2841 26.6392 24.2841 29.3084 22.6616 30.9308L-0.261719 53.9065V43.5439L13.0841 30.1981C14.2878 28.9944 14.2878 27.0056 13.0841 25.7495L12.3514 25.0168C11.1476 23.8131 9.15884 23.8131 7.90277 25.0168L-0.261719 33.1813V22.8187L2.72146 19.8355C3.9252 18.6318 3.9252 16.643 2.72146 15.3869L1.93641 14.6542C1.30837 14.0262 0.523328 13.7121 -0.261719 13.7121V2.09344L22.6616 25.0168Z" fill="#0038FF"/>
<path opacity="0.6" fill-rule="evenodd" clip-rule="evenodd" d="M30.9831 33.3383C29.3607 31.7159 26.6915 31.7159 25.0691 33.3383L2.09338 56.2617H13.7644C13.7644 55.4766 14.0784 54.6392 14.7065 54.0635L15.4392 53.3308C16.6429 52.1271 18.6317 52.1271 19.8878 53.3308L22.871 56.314H33.2336L32.6055 55.686C31.4018 54.4822 31.4018 52.4934 32.6055 51.2374L33.3382 50.5047C34.542 49.3009 36.5308 49.3009 37.7868 50.5047L43.5962 56.314H53.9065L30.9831 33.3383ZM30.1981 42.9159C28.9943 41.7121 27.0055 41.7121 25.7495 42.9159L25.0167 43.6486C23.813 44.8523 23.813 46.8411 25.0167 48.0972L25.7495 48.8299C26.9532 50.0336 28.942 50.0336 30.1981 48.8299L30.9308 48.0972C32.1345 46.8934 32.1345 44.9047 30.9308 43.6486L30.1981 42.9159Z" fill="#0038FF"/>
</g>
</svg>
