<svg width="56" height="56" viewBox="0 0 56 56" fill="none" xmlns="http://www.w3.org/2000/svg">
<mask id="mask0_1_78" style="mask-type:luminance" maskUnits="userSpaceOnUse" x="0" y="0" width="56" height="56">
<path d="M8.37383 0H47.6262C52.2318 0 56 3.76822 56 8.37383V47.6262C56 52.2318 52.2318 56 47.6262 56H8.37383C3.76822 56 0 52.2318 0 47.6262V8.37383C0 3.76822 3.76822 0 8.37383 0Z" fill="white"/>
</mask>
<g mask="url(#mask0_1_78)">
<path opacity="0.6" fill-rule="evenodd" clip-rule="evenodd" d="M30.9832 33.3383C29.3607 31.7159 26.6916 31.7159 25.0691 33.3383L2.09344 56.2616H13.7645C13.7645 55.4766 14.0785 54.6392 14.7065 54.0635L15.4392 53.3308C16.643 52.1271 18.6318 52.1271 19.8878 53.3308L22.871 56.314H33.2336L32.6056 55.6859C31.4019 54.4822 31.4019 52.4934 32.6056 51.2373L33.3383 50.5046C34.542 49.3009 36.5308 49.3009 37.7869 50.5046L43.5962 56.314H53.9065L30.9832 33.3383ZM30.1981 42.9159C28.9944 41.7121 27.0056 41.7121 25.7495 42.9159L25.0168 43.6486C23.8131 44.8523 23.8131 46.8411 25.0168 48.0972L25.7495 48.8299C26.9533 50.0336 28.942 50.0336 30.1981 48.8299L30.9308 48.0972C32.1346 46.8934 32.1346 44.9046 30.9308 43.6486L30.1981 42.9159Z" fill="#0038FF"/>
</g>
</svg>
